<?xml version="1.0" encoding="UTF-8"?>
<svg width="512px" height="512px" viewBox="0 0 512 512" version="1.1" xmlns="http://www.w3.org/2000/svg" xmlns:xlink="http://www.w3.org/1999/xlink">
    <title>serverless-data</title>
    <g id="serverless-data" stroke="none" stroke-width="1" fill="none" fill-rule="evenodd">
        <path d="M478,394 C478,436.409073 444.15467,470.913147 402.001407,471.974823 L402,472 L130,472 C76.980664,472 34,429.019336 34,376 L34,199 L34.008,199 L34.0128613,198.412464 C34.8606171,146.125349 77.5108574,104 130,104 C140.63326,104 150.862745,105.728771 160.422719,108.920579 C181.767607,67.9641144 224.618119,40 274,40 C335.076996,40 386.162638,82.778066 398.929802,140.007071 L400,140 C442.744271,140 477.458087,174.382465 477.993717,216.999664 L478,217 L478,394 Z M50,341.085098 L50,376 C50,419.740952 85.1044573,455.282819 128.677054,455.989282 L130,456 L400.765,456 L401.598557,455.979895 C434.821272,455.143145 461.462466,428.194702 461.991967,395.00756 L462.00007,394 L462.00007,353.335249 C448.124178,371.482418 426.461463,383.358769 402.001407,383.974823 L402,384 L130,384 C96.6086298,384 67.1990296,366.952016 50,341.085098 Z M50,253.085098 L50,288 C50,331.740952 85.1044573,367.282819 128.677054,367.989282 L130,368 L400.765,368 L401.598557,367.979895 C434.821272,367.143145 461.462466,340.194702 461.991967,307.00756 L462.00007,306 L462.00007,265.335249 C448.124178,283.482418 426.461463,295.358769 402.001407,295.974823 L402,296 L130,296 C96.6086298,296 67.1990296,278.952016 50,253.085098 Z" id="Shape" fill="#FD5750"></path>
    </g>
</svg>